<svg width="227" height="229" viewBox="0 0 227 229" fill="none" xmlns="http://www.w3.org/2000/svg">
<path d="M139 160L185.5 57C185.5 57 201.743 70.5 211.5 82.5C218.532 91.1487 225.419 98.5889 226 111C226.484 121.344 224.596 132.5 218 140.473C203.5 158 187 172 187 172C187 172 178.474 174.216 173 174.5C167.526 174.784 163.184 174.748 159 173.5C154.816 172.252 152.665 170.872 149 168.5C145.334 166.128 139 160 139 160Z" fill="url(#paint0_linear_162_14)"/>
<path d="M101.354 123.43L67.5272 198.333C67.2059 199.044 67.3196 199.867 67.8391 200.45C71.147 204.161 83.5174 217.707 92 222.5C101.869 228.076 111.5 230.5 126 228C139.517 225.67 181.709 178.153 187.37 171.719C187.541 171.524 187.32 171.233 187.073 171.311C183.909 172.314 173.012 175.295 160 173.5C145.925 171.559 109.587 130.678 103.024 123.177C102.542 122.627 101.655 122.763 101.354 123.43Z" fill="url(#paint1_linear_162_14)"/>
<path d="M87.0717 68.9832L40.5718 171.983C40.5718 171.983 24.3286 158.483 14.5718 146.483C7.53983 137.835 0.652681 130.394 0.0718046 117.983C-0.412329 107.639 1.47525 96.4832 8.07181 88.5098C22.5718 70.9832 39.0718 56.9832 39.0718 56.9832C39.0718 56.9832 47.5261 55.2844 53 55.0001C58.4739 54.7159 62.8161 54.2516 67 55.5C71.1839 56.7484 73.4063 58.1109 77.0718 60.4832C80.7373 62.8555 87.0717 68.9832 87.0717 68.9832Z" fill="url(#paint2_linear_162_14)"/>
<path d="M125.143 105.56L158.973 30.6506C159.294 29.939 159.18 29.1158 158.661 28.533C155.353 24.8221 142.983 11.2762 134.5 6.48315C124.631 0.906883 115 -1.51685 100.5 0.983154C86.9558 3.31836 44.1826 51.0387 38.6024 57.3198C38.4328 57.5107 38.6359 57.8018 38.8811 57.7303C42.1086 56.7895 53.7636 53.7993 66.5 55.4832C80.1301 57.2852 116.879 98.3351 123.478 105.818C123.961 106.365 124.842 106.225 125.143 105.56Z" fill="url(#paint3_linear_162_14)"/>
<defs>
<linearGradient id="paint0_linear_162_14" x1="217" y1="69" x2="152" y2="170.5" gradientUnits="userSpaceOnUse">
<stop offset="0.201923" stop-color="#048FE6"/>
<stop offset="1" stop-color="#176DA2"/>
</linearGradient>
<linearGradient id="paint1_linear_162_14" x1="127.321" y1="234.483" x2="127.321" y2="137.983" gradientUnits="userSpaceOnUse">
<stop stop-color="#7DD3E6"/>
<stop offset="1" stop-color="#048FE6"/>
</linearGradient>
<linearGradient id="paint2_linear_162_14" x1="9.07166" y1="160.018" x2="73.8071" y2="58.6399" gradientUnits="userSpaceOnUse">
<stop offset="0.201923" stop-color="#048FE6"/>
<stop offset="1" stop-color="#176DA2"/>
</linearGradient>
<linearGradient id="paint3_linear_162_14" x1="98.9298" y1="-5.5" x2="98.9298" y2="91" gradientUnits="userSpaceOnUse">
<stop stop-color="#7DD3E6"/>
<stop offset="1" stop-color="#048FE6"/>
</linearGradient>
</defs>
</svg>
