<svg width="227" height="227" viewBox="0 0 227 227" fill="none" xmlns="http://www.w3.org/2000/svg">
<path d="M87.5 69L40.5718 171.983C40.5718 171.983 24.3286 158.483 14.5718 146.483C7.53983 137.835 0.652681 130.394 0.0718046 117.983C-0.412329 107.639 1.47525 96.4832 8.07181 88.5099C22.5718 70.9832 39.0718 56.9832 39.0718 56.9832C39.0718 56.9832 47.5261 55.2844 53 55.0002C58.4739 54.7159 62.3115 54.1011 67 55.5C71.6885 56.899 73.4063 58.111 77.0718 60.4832C80.7373 62.8555 87.5 69 87.5 69Z" fill="url(#paint0_linear_162_14)"/>
<path d="M125.124 105.601L158.973 30.6506C159.294 29.939 159.18 29.1158 158.661 28.533C155.353 24.8221 142.983 11.2762 134.5 6.48315C124.631 0.906883 115 -1.51685 100.5 0.983154C86 3.48315 38 58 38 58C38 58 52.5 54.0168 66.5 56.5C79.2383 58.7594 116.813 98.7013 123.482 105.882C123.971 106.408 124.829 106.256 125.124 105.601Z" fill="url(#paint1_linear_162_14)"/>
<path d="M139 157.983L185.928 54.9999C185.928 54.9999 202.171 68.4999 211.928 80.4999C218.96 89.1486 225.847 96.5888 226.428 109C226.912 119.344 225.025 130.5 218.428 138.473C203.928 156 187.428 170 187.428 170C187.428 170 178.974 171.699 173.5 171.983C168.026 172.267 164.188 172.882 159.5 171.483C154.812 170.084 153.094 168.872 149.428 166.5C145.763 164.128 139 157.983 139 157.983Z" fill="url(#paint2_linear_162_14)"/>
<path d="M101.376 121.382L67.5272 196.333C67.2059 197.044 67.3196 197.867 67.8391 198.45C71.147 202.161 83.5174 215.707 92 220.5C101.869 226.076 111.5 228.5 126 226C140.5 223.5 188.5 168.983 188.5 168.983C188.5 168.983 174 172.966 160 170.483C147.262 168.224 109.687 128.282 103.018 121.101C102.529 120.575 101.671 120.728 101.376 121.382Z" fill="url(#paint3_linear_162_14)"/>
<defs>
<linearGradient id="paint0_linear_162_14" x1="9.11628" y1="160.012" x2="73.7624" y2="58.3255" gradientUnits="userSpaceOnUse">
<stop offset="0.235577" stop-color="#2C9DE4"/>
<stop offset="1" stop-color="#135781"/>
</linearGradient>
<linearGradient id="paint1_linear_162_14" x1="98.9298" y1="-5.5" x2="98.9298" y2="91" gradientUnits="userSpaceOnUse">
<stop stop-color="#7DD3E6"/>
<stop offset="1" stop-color="#048FE6"/>
</linearGradient>
<linearGradient id="paint2_linear_162_14" x1="217.384" y1="66.9713" x2="152.738" y2="168.658" gradientUnits="userSpaceOnUse">
<stop offset="0.235577" stop-color="#2C9DE4"/>
<stop offset="1" stop-color="#135781"/>
</linearGradient>
<linearGradient id="paint3_linear_162_14" x1="127.57" y1="232.483" x2="127.57" y2="135.983" gradientUnits="userSpaceOnUse">
<stop stop-color="#7DD3E6"/>
<stop offset="1" stop-color="#048FE6"/>
</linearGradient>
</defs>
</svg>
